<svg version="1.1" id="Layer_1" xmlns="http://www.w3.org/2000/svg" xmlns:xlink="http://www.w3.org/1999/xlink" viewBox="0 0 512 512" xml:space="preserve" width="256px" height="256px" fill="" transform="matrix(1, 0, 0, 1, 0, 0)" stroke=""><g id="SVGRepo_bgCarrier" stroke-width="0"></g><g id="SVGRepo_tracerCarrier" stroke-linecap="round" stroke-linejoin="round" stroke="#CCCCCC" stroke-width="1.024"></g><g id="SVGRepo_iconCarrier"> <circle style="fill:#86aefd;" cx="256" cy="256" r="256"></circle> <path style="fill:#1ab2ff;" d="M281.99,510.695c120.763-12.176,216.747-108.285,228.74-229.104L377.956,148.875L267.105,288.94 l-3.491,2.529l-129.388,72.297L281.99,510.695z"></path> <path style="fill:#3ae6f2;" d="M368.568,367.48H143.432c-7.333,0-13.278-5.944-13.278-13.278V158.263 c0-7.333,5.944-13.278,13.278-13.278h225.133c7.333,0,13.278,5.944,13.278,13.278v195.937 C381.845,361.534,375.899,367.48,368.568,367.48z"></path> <path style="fill:#1c1c1c;" d="M381.845,179.345h-251.69v-21.082c0-7.333,5.944-13.278,13.278-13.278h225.133 c7.333,0,13.278,5.944,13.278,13.278v21.082H381.845z"></path> <path style="fill:#f9f690;" d="M130.155,274.185v80.015c0,7.333,5.944,13.278,13.278,13.278h112.147v-93.293H130.155 L130.155,274.185z"></path> <path style="fill:#f9aa76;" d="M381.845,274.185H255.581v93.293h112.987c7.333,0,13.278-5.944,13.278-13.278V274.185z"></path> <g> <circle style="fill:#fa8500;" cx="152.893" cy="161.702" r="5.641"></circle> <circle style="fill:#fa8500;" cx="175.045" cy="161.702" r="5.641"></circle> </g> <g> <rect x="152.1" y="291.461" style="fill:#030303;" width="81.541" height="10.068"></rect> <rect x="152.1" y="315.009" style="fill:#030303;" width="81.541" height="10.068"></rect> <rect x="152.1" y="338.541" style="fill:#030303;" width="81.541" height="10.068"></rect> </g> </g></svg>